<svg version="1.1" id="Layer_1" xmlns="http://www.w3.org/2000/svg" xmlns:xlink="http://www.w3.org/1999/xlink" x="0px" y="0px"
	 width="100%" viewBox="0 0 1063 1063" enable-background="new 0 0 1063 1063" xml:space="preserve">
<path fill="#000000" opacity="1.000000" stroke="none" 
	d="
M589.000000,1064.000000 
	C392.689636,1064.000000 196.879257,1064.000000 1.034440,1064.000000 
	C1.034440,709.731201 1.034440,355.462341 1.034440,1.096754 
	C355.227264,1.096754 709.454590,1.096754 1063.840942,1.096754 
	C1063.840942,355.333282 1063.840942,709.666626 1063.840942,1064.000000 
	C905.795227,1064.000000 747.647644,1064.000000 589.000000,1064.000000 
M520.743408,645.754822 
	C523.193359,644.906372 525.643311,644.057861 528.172729,644.233154 
	C528.187622,646.065308 528.216736,647.897522 528.214905,649.729675 
	C528.207642,656.983887 528.204041,656.985413 535.561157,656.986023 
	C575.376282,656.989380 615.191345,656.992188 655.006470,656.994324 
	C662.003296,656.994690 669.001221,656.916809 675.996338,657.025696 
	C678.823914,657.069763 680.299866,656.303528 680.315613,653.131409 
	C680.399231,636.308838 680.578125,619.486389 680.826843,602.665344 
	C680.877014,599.278015 679.645630,597.878723 676.148682,597.957031 
	C668.322693,598.132385 660.490356,598.031738 652.660645,598.036743 
	C646.010925,598.041016 646.005066,598.036804 646.001892,591.159485 
	C645.996765,580.164551 646.000183,569.169556 646.000305,558.174622 
	C646.000427,547.931641 646.000793,547.977600 656.308960,547.922485 
	C677.904541,547.807007 699.607361,549.212463 720.871582,543.919983 
	C747.929260,537.185547 768.159546,522.662170 775.456787,494.349884 
	C780.424377,475.076202 780.476379,455.563293 776.008667,436.127563 
	C772.265808,419.844849 764.475403,406.204224 750.295288,396.599426 
	C732.551331,384.580658 712.398926,380.465912 691.686279,380.222107 
	C641.216370,379.627899 590.734741,380.018890 540.257874,380.013733 
	C528.354614,380.012543 528.354614,380.013672 527.335999,391.765228 
	C525.624207,391.145233 523.912476,390.525269 521.709778,389.313477 
	C519.449585,388.531128 517.189026,387.749969 514.929321,386.966217 
	C498.818207,381.378693 482.115479,379.182251 465.187897,379.112915 
	C417.875854,378.919159 370.562592,379.027100 323.249786,379.028320 
	C321.789978,379.028381 320.330139,379.164764 318.718445,379.245148 
	C318.718445,398.914337 318.718445,418.309143 318.718445,438.182098 
	C324.760315,438.182098 330.353760,438.182098 335.821503,438.182098 
	C335.821503,491.372009 335.821503,544.080872 335.821503,597.128784 
	C329.999023,597.128784 324.551300,597.128784 318.800354,597.128784 
	C318.800354,616.877747 318.800354,636.287598 318.800354,655.616638 
	C319.430908,655.788147 319.752258,655.953552 320.072571,655.951538 
	C375.020966,655.612122 429.973511,655.523499 484.913513,654.648315 
	C493.960266,654.504211 502.951996,650.906128 512.707520,648.962646 
	C515.135681,647.927979 517.563843,646.893311 520.743408,645.754822 
z"/>
<path fill="#00357B" opacity="1.000000" stroke="none" 
	d="
M528.009583,391.917419 
	C528.354614,380.013672 528.354614,380.012543 540.257874,380.013733 
	C590.734741,380.018890 641.216370,379.627899 691.686279,380.222107 
	C712.398926,380.465912 732.551331,384.580658 750.295288,396.599426 
	C764.475403,406.204224 772.265808,419.844849 776.008667,436.127563 
	C780.476379,455.563293 780.424377,475.076202 775.456787,494.349884 
	C768.159546,522.662170 747.929260,537.185547 720.871582,543.919983 
	C699.607361,549.212463 677.904541,547.807007 656.308960,547.922485 
	C646.000793,547.977600 646.000427,547.931641 646.000305,558.174622 
	C646.000183,569.169556 645.996765,580.164551 646.001892,591.159485 
	C646.005066,598.036804 646.010925,598.041016 652.660645,598.036743 
	C660.490356,598.031738 668.322693,598.132385 676.148682,597.957031 
	C679.645630,597.878723 680.877014,599.278015 680.826843,602.665344 
	C680.578125,619.486389 680.399231,636.308838 680.315613,653.131409 
	C680.299866,656.303528 678.823914,657.069763 675.996338,657.025696 
	C669.001221,656.916809 662.003296,656.994690 655.006470,656.994324 
	C615.191345,656.992188 575.376282,656.989380 535.561157,656.986023 
	C528.204041,656.985413 528.207642,656.983887 528.214905,649.729675 
	C528.216736,647.897522 528.187622,646.065308 528.317139,643.411865 
	C528.498657,632.386719 528.535767,622.182922 528.657471,611.523132 
	C528.742065,606.990479 528.742065,602.913757 528.742065,598.863586 
	C531.029785,598.558350 532.494324,598.362915 534.341614,598.295532 
	C536.553040,598.451782 538.411865,598.278259 540.204590,598.546753 
	C545.219116,599.297791 546.676147,597.447754 546.612061,592.291016 
	C546.318298,568.673584 546.494324,545.050354 546.488708,521.429199 
	C546.482605,495.645538 546.369568,469.861267 546.541016,444.078827 
	C546.568970,439.870636 545.296814,438.470764 541.179504,438.794647 
	C537.255371,439.103302 533.287903,438.861145 528.571594,438.861145 
	C528.571594,426.189148 528.571594,414.083893 528.656067,401.545471 
	C528.496887,398.047333 528.253235,394.982361 528.009583,391.917419 
M676.989807,451.846649 
	C675.208252,445.036591 670.814575,440.855438 663.924988,439.776123 
	C659.700134,439.114319 655.341919,439.354218 651.065613,438.954407 
	C647.219666,438.594910 645.856079,439.921753 645.916077,443.945526 
	C646.134094,458.576721 645.889771,473.214325 646.038452,487.847260 
	C646.141479,497.985107 643.785522,497.237366 655.835815,496.906982 
	C669.294556,496.537964 675.945129,492.272308 677.288818,481.406555 
	C678.454956,471.977112 677.273804,462.257355 676.989807,451.846649 
z"/>
<path fill="#FE5757" opacity="1.000000" stroke="none" 
	d="
M511.969177,648.904358 
	C502.951996,650.906128 493.960266,654.504211 484.913513,654.648315 
	C429.973511,655.523499 375.020966,655.612122 320.072571,655.951538 
	C319.752258,655.953552 319.430908,655.788147 318.800354,655.616638 
	C318.800354,636.287598 318.800354,616.877747 318.800354,597.128784 
	C324.551300,597.128784 329.999023,597.128784 335.821503,597.128784 
	C335.821503,544.080872 335.821503,491.372009 335.821503,438.182098 
	C330.353760,438.182098 324.760315,438.182098 318.718445,438.182098 
	C318.718445,418.309143 318.718445,398.914337 318.718445,379.245148 
	C320.330139,379.164764 321.789978,379.028381 323.249786,379.028320 
	C370.562592,379.027100 417.875854,378.919159 465.187897,379.112915 
	C482.115479,379.182251 498.818207,381.378693 514.929321,386.966217 
	C517.189026,387.749969 519.449585,388.531128 521.662842,389.801697 
	C519.373535,394.142883 516.559082,397.777069 514.987610,401.886627 
	C508.168549,419.719391 510.100677,437.463409 517.886536,454.317017 
	C525.635803,471.091217 528.511353,488.399261 528.101685,506.693542 
	C527.646667,527.012024 528.112976,547.349670 527.922729,567.676575 
	C527.870056,573.300659 527.706116,579.142517 526.190979,584.486816 
	C523.388184,594.373047 519.481689,603.942505 516.161194,613.686890 
	C512.267090,625.114563 509.335693,636.686218 511.969177,648.904358 
M436.578400,593.145996 
	C436.149597,596.079590 437.139587,597.286865 440.361450,597.160889 
	C447.011292,596.900879 453.679688,597.160217 460.336243,597.014587 
	C469.579834,596.812378 476.709351,591.613708 478.934784,582.666382 
	C480.199829,577.580200 480.615265,572.172913 480.641449,566.906372 
	C480.804596,534.109253 480.776428,501.311035 480.733002,468.513275 
	C480.727509,464.363861 480.483185,460.187195 479.964996,456.071594 
	C478.842102,447.153076 472.611816,440.159241 463.654541,439.045105 
	C454.838898,437.948608 445.878387,438.016785 436.581421,437.554047 
	C436.581421,489.724579 436.581421,540.968323 436.578400,593.145996 
z"/>
<path fill="#F45353" opacity="1.000000" stroke="none" 
	d="
M512.338379,648.933472 
	C509.335693,636.686218 512.267090,625.114563 516.161194,613.686890 
	C519.481689,603.942505 523.388184,594.373047 526.190979,584.486816 
	C527.706116,579.142517 527.870056,573.300659 527.922729,567.676575 
	C528.112976,547.349670 527.646667,527.012024 528.101685,506.693542 
	C528.511353,488.399261 525.635803,471.091217 517.886536,454.317017 
	C510.100677,437.463409 508.168549,419.719391 514.987610,401.886627 
	C516.559082,397.777069 519.373535,394.142883 521.908325,390.097595 
	C523.912476,390.525269 525.624207,391.145233 527.672791,391.841309 
	C528.253235,394.982361 528.496887,398.047333 528.350830,401.653625 
	C526.042480,405.565643 523.270935,408.722626 522.362976,412.346558 
	C519.494446,423.795868 520.267395,435.395325 525.184692,446.059326 
	C534.155090,465.513306 538.237732,485.579010 537.138428,507.060394 
	C535.585510,537.404236 539.605042,567.950867 533.958862,598.167480 
	C532.494324,598.362915 531.029785,598.558350 528.742065,598.863586 
	C528.742065,602.913757 528.742065,606.990479 528.354370,611.639160 
	C526.660706,614.270691 524.591248,616.189941 524.182251,618.414490 
	C522.509766,627.511902 521.344177,636.702393 519.991943,645.858643 
	C517.563843,646.893311 515.135681,647.927979 512.338379,648.933472 
z"/>
<path fill="#EA5051" opacity="1.000000" stroke="none" 
	d="
M520.367676,645.806763 
	C521.344177,636.702393 522.509766,627.511902 524.182251,618.414490 
	C524.591248,616.189941 526.660706,614.270691 528.269775,612.095093 
	C528.535767,622.182922 528.498657,632.386719 528.277405,642.900024 
	C525.643311,644.057861 523.193359,644.906372 520.367676,645.806763 
z"/>
<path fill="#EA5051" opacity="1.000000" stroke="none" 
	d="
M534.341614,598.295532 
	C539.605042,567.950867 535.585510,537.404236 537.138428,507.060394 
	C538.237732,485.579010 534.155090,465.513306 525.184692,446.059326 
	C520.267395,435.395325 519.494446,423.795868 522.362976,412.346558 
	C523.270935,408.722626 526.042480,405.565643 528.266357,402.086792 
	C528.571594,414.083893 528.571594,426.189148 528.571594,438.861145 
	C533.287903,438.861145 537.255371,439.103302 541.179504,438.794647 
	C545.296814,438.470764 546.568970,439.870636 546.541016,444.078827 
	C546.369568,469.861267 546.482605,495.645538 546.488708,521.429199 
	C546.494324,545.050354 546.318298,568.673584 546.612061,592.291016 
	C546.676147,597.447754 545.219116,599.297791 540.204590,598.546753 
	C538.411865,598.278259 536.553040,598.451782 534.341614,598.295532 
z"/>
<path fill="#000000" opacity="1.000000" stroke="none" 
	d="
M677.059937,452.256287 
	C677.273804,462.257355 678.454956,471.977112 677.288818,481.406555 
	C675.945129,492.272308 669.294556,496.537964 655.835815,496.906982 
	C643.785522,497.237366 646.141479,497.985107 646.038452,487.847260 
	C645.889771,473.214325 646.134094,458.576721 645.916077,443.945526 
	C645.856079,439.921753 647.219666,438.594910 651.065613,438.954407 
	C655.341919,439.354218 659.700134,439.114319 663.924988,439.776123 
	C670.814575,440.855438 675.208252,445.036591 677.059937,452.256287 
z"/>
<path fill="#020101" opacity="1.000000" stroke="none" 
	d="
M436.579895,592.679016 
	C436.581421,540.968323 436.581421,489.724579 436.581421,437.554047 
	C445.878387,438.016785 454.838898,437.948608 463.654541,439.045105 
	C472.611816,440.159241 478.842102,447.153076 479.964996,456.071594 
	C480.483185,460.187195 480.727509,464.363861 480.733002,468.513275 
	C480.776428,501.311035 480.804596,534.109253 480.641449,566.906372 
	C480.615265,572.172913 480.199829,577.580200 478.934784,582.666382 
	C476.709351,591.613708 469.579834,596.812378 460.336243,597.014587 
	C453.679688,597.160217 447.011292,596.900879 440.361450,597.160889 
	C437.139587,597.286865 436.149597,596.079590 436.579895,592.679016 
z"/>
</svg>